<svg version="1.2" xmlns="http://www.w3.org/2000/svg" viewBox="0 0 800 800" width="24" height="24">
	<title>folder</title>
	<style>
		.s0 { fill: #ffffff } 
	</style>
	<path fill-rule="evenodd" class="s0" d="m116.67 266.67v266.66c0 27.62 22.38 50 50 50h466.66c27.62 0 50-22.38 50-50v-200c0-27.61-22.38-50-50-50h-219.52c-13.26 0-25.98-5.26-35.36-14.64l-47.14-47.14c-3.12-3.13-7.36-4.88-11.78-4.88h-152.86c-9.21 0-16.67-7.47-16.67-16.67 0-9.2 7.46-16.67 16.67-16.67h152.86c13.26 0 25.97 5.27 35.35 14.65l47.14 47.14c3.13 3.12 7.37 4.88 11.79 4.88h219.52c46.03 0 83.34 37.31 83.34 83.33v200c0 46.03-37.31 83.34-83.34 83.34h-466.66c-46.03 0-83.34-37.31-83.34-83.34v-266.66c0-9.21 7.47-16.67 16.67-16.67 9.2 0 16.67 7.46 16.67 16.67z"/>
</svg>